PathFileType	4	(X/Y/Z)	Patient4_TMGait_0pt5_02_left_23.trc.trc
DataRate	CameraRate	NumFrames	NumMarkers	Units	OrigDataRate	OrigDataStartFrame	OrigNumFrames
76.502732240437	76.502732240437	4	33	mm	76.502732240437	53	       141
Frame#	Time	Sacral			L.Shoulder			Chest			R.Shoulder			Neck			R.ASIS			L.ASIS			R.Thigh.Superior			R.Thigh.Lateral			R.Thigh.Inferior			R.Patella			L.Thigh.Superior			L.Thigh.Lateral			L.Thigh.Inferior			L.Patella			L.Shank.Superior			L.Shank.Lateral			L.Shank.Inferior			R.Shank.Superior			R.Shank.Lateral			R.Shank.Inferior			R.Heel			R.Midfoot.Superior			R.Midfoot.Lateral			R.Toe			L.Heel			L.Midfoot.Lateral			L.Midfoot.Superior			L.Toe			L.Elbow			L.Wrist			R.Elbow			R.Wrist			
		X1	Y1	Z1	X2	Y2	Z2	X3	Y3	Z3	X4	Y4	Z4	X5	Y5	Z5	X6	Y6	Z6	X7	Y7	Z7	X8	Y8	Z8	X9	Y9	Z9	X10	Y10	Z10	X11	Y11	Z11	X12	Y12	Z12	X13	Y13	Z13	X14	Y14	Z14	X15	Y15	Z15	X16	Y16	Z16	X17	Y17	Z17	X18	Y18	Z18	X19	Y19	Z19	X20	Y20	Z20	X21	Y21	Z21	X22	Y22	Z22	X23	Y23	Z23	X24	Y24	Z24	X25	Y25	Z25	X26	Y26	Z26	X27	Y27	Z27	X28	Y28	Z28	X29	Y29	Z29	X30	Y30	Z30	X31	Y31	Z31	X32	Y32	Z32	X33	Y33	Z33	

53	29.959714285714	460.927650437375	1007.684198489394	443.387538480827	639.276646032555	1433.582337978022	256.816430386997	741.281848809939	1366.472220006557	420.021596394173	655.423554845976	1445.493621483272	591.866495182816	640.090428034020	1497.197589851284	406.850905794489	684.808233670663	946.409967043977	563.856984090163	679.386579169222	963.114754692086	289.566532788758	768.984740136083	775.432471626221	538.487168506430	726.200032140529	654.467605730724	610.675380400486	819.603284726098	615.732699331031	535.348886264765	837.652931426906	501.660905671284	557.953130416664	728.812064797627	752.027983412918	321.961022533991	641.366680722686	636.511022347389	264.830334372006	723.477409904215	559.490898282618	331.367827712746	722.741747003911	489.707460507746	343.023781248051	697.304267743975	417.564983056164	334.777162152892	610.163352654880	301.523233586574	284.175358637130	659.501899265773	192.860002060725	359.771177196464	761.374821631323	426.709356402270	560.067954731793	637.125892588321	385.615762897530	611.880025257876	626.102815881391	277.238696931352	562.143010618771	428.133565270626	218.885564536436	519.127665131868	590.605207444013	155.753127593915	574.485226586219	480.102708483208	162.892643046869	600.185781565857	648.743139466323	43.692771614689	614.237926563239	531.210464550963	36.927067537946	402.820454077527	605.551743531778	34.286292884347	321.732345542983	687.824431737795	95.937404406849	348.586014271907	816.680838264154	46.440629023713	320.856690954718	636.715833362451	1085.201874464573	121.184229328362	792.193535423234	873.107661676067	130.093610425767	627.871931518875	1099.246204384647	711.086147755834	764.838973054999	878.464385085819	690.956444598425	
54	29.972785714286	460.497635029554	1008.223335903339	441.610080224431	641.162946270720	1434.443173977044	256.558170878525	741.605974354121	1366.692795943768	420.483526173840	654.428654147142	1445.341553282893	591.783606810063	640.736486329538	1497.719275702036	406.820540838081	683.792685656519	947.377618027572	563.439657187969	679.770076867325	963.395021685022	288.950682871851	769.806138548058	778.441537249357	537.545256343729	729.148643139492	657.108516751402	610.067008880157	822.590750570575	619.529012676121	534.296775280045	842.860358377670	506.347121007110	557.183593844042	727.052980235693	751.214988170013	322.014898793709	638.771408853582	636.447901116443	264.403686916276	719.736730632049	558.689901001260	331.395139862832	718.269580707712	489.022889914158	343.143081025927	692.569207210593	417.120172385228	334.805920432601	605.027626666596	301.468777440031	284.042472170394	653.519253880471	192.615902270181	359.825536453079	769.080165806123	429.459944067889	559.654199460833	646.750001692168	383.811902406168	612.020508089070	639.511487942369	275.090470414806	562.364325287787	443.610154873285	209.032537529688	520.436537876292	608.785509937090	152.486826826743	574.793071870643	498.260760932659	155.171741215816	601.161300000529	671.510003110801	43.012511563195	614.117259915230	524.549957937207	36.931947726561	402.824636158745	598.952164164517	34.296764869947	321.731342951872	681.278775985544	95.885759492496	348.637073975448	810.130067620325	46.250285245647	320.875204354768	640.118433901990	1086.710510442417	119.652552276162	804.407727907837	881.384492472889	129.310914017199	620.079383108027	1099.355483354626	709.867563620495	742.589555519830	869.273315186024	696.456380054190	
55	29.985857142857	460.133488803406	1008.733134153414	439.920082183992	643.216288017961	1435.232407464326	256.431686445638	742.033456246995	1366.826357259993	421.083635456593	653.533514737316	1445.138232315775	591.814673028411	641.470143370173	1498.170122872586	406.906714420651	682.808690838002	948.219036854429	563.138659181422	680.228206472609	963.610252575955	288.471189605961	770.336304261254	781.049970128907	536.766650312865	731.486582702384	659.420393714186	609.604789222512	824.804353581235	622.758030934815	533.378364378577	847.126980886761	510.735022107789	556.604067514035	725.262814585298	750.368388072276	322.191587724085	636.195906459104	636.363557321203	264.007897393176	715.967984388507	557.874876231130	331.448118745419	713.750234969365	488.330448876383	343.260137505671	687.803540966846	416.666028807133	334.835806313291	599.875270792452	301.396469679758	283.904531692727	647.529249019141	192.364156238810	359.870553893545	776.249974184983	431.858029815631	559.463445171187	656.311924845422	381.095041217231	612.442151942962	653.497155401911	272.130146798837	562.900748787660	460.409750722504	197.394970545345	522.100794231294	628.266923256444	148.453878821938	575.495655655274	517.903160551513	146.105320883225	602.537721514204	696.045014232306	42.106286252402	614.462136922762	517.902044810609	36.936456252343	402.828986222459	592.358034162961	34.304862284300	321.732549162770	674.741997771472	95.833225482651	348.690133457207	803.592037171733	46.043527478586	320.899415434516	643.269756319572	1088.189544227139	118.258759639837	816.199219032753	890.136620672921	128.715032404068	612.591359020165	1099.600129581422	708.788945044017	720.386686254634	861.645639819213	701.819702986292	
56	29.998928571429	459.853171381397	1009.194394619990	438.333009762798	645.393945461904	1435.924437133908	256.439146228930	742.558021926407	1366.858016147462	421.807429950288	652.758747299522	1444.876563960783	591.959795852833	642.294564312854	1498.531147576050	407.104600913053	681.877089219552	948.900909152639	562.940193723189	680.760810562187	963.753944697893	288.120336033576	770.557159007422	783.179599347185	536.158724068342	733.146562177285	661.327238444346	609.299635761835	826.199067260605	625.328185444304	532.626625377388	850.399654728176	514.739060964577	556.229383778070	723.484264445681	749.491488906984	322.432100152204	633.639802149680	636.252298755151	263.637629632892	712.191214396145	557.043032111170	331.496696321471	709.205773879482	487.628855530720	343.360226038814	683.026159886604	416.197875534350	334.857052993586	594.717688718154	301.305267158952	283.759653541148	641.540639392096	192.101416685216	359.903909158074	782.812800781451	433.886916485325	559.508878610054	665.777107397760	377.566363071924	613.131336510835	667.990485170116	268.532217365370	563.747353585789	478.613115056857	184.297409312482	524.033533149130	648.923733994542	143.931823822546	576.597216226078	538.989826276063	136.041106185915	604.269676893375	722.084504518722	41.283660052919	615.322681563977	511.273544010059	36.942861758426	402.829474647858	585.770889874872	34.310820786394	321.735087735473	668.215238906308	95.778432235176	348.745171813650	797.066921033201	45.821149286849	320.927840202846	646.256824008096	1089.610736858700	116.993627082366	827.540036209752	899.284541145582	128.312218473721	605.327086487549	1099.973311549829	707.869610910453	698.454903401868	855.576988530662	707.025317625281	
